<?xml version="1.0" encoding="UTF-8" standalone="no"?>
<svg
   xmlns:dc="http://purl.org/dc/elements/1.1/"
   xmlns:cc="http://creativecommons.org/ns#"
   xmlns:rdf="http://www.w3.org/1999/02/22-rdf-syntax-ns#"
   xmlns:svg="http://www.w3.org/2000/svg"
   xmlns="http://www.w3.org/2000/svg"
   id="svg8"
   version="1.1"
   viewBox="0 0 62.507799 66.949043"
   height="66.949043mm"
   width="62.507801mm">
  <defs
     id="defs2" />
  <metadata
     id="metadata5">
    <rdf:RDF>
      <cc:Work
         rdf:about="">
        <dc:format>image/svg+xml</dc:format>
        <dc:type
           rdf:resource="http://purl.org/dc/dcmitype/StillImage" />
        <dc:title></dc:title>
      </cc:Work>
    </rdf:RDF>
  </metadata>
  <g
     transform="translate(-59.554878,-78.222654)"
     id="layer1">
    <path
       id="path3728"
       d="m 73.924544,127.95707 -0.618059,-0.20045 -0.41761,-0.45102 -0.250563,-0.96885 0.384199,-1.70384 0.283974,-0.78511 0.217157,-0.80181 -0.150339,-0.61806 -0.384201,-0.61806 -0.317384,-0.56795 -0.534538,-0.51783 -0.317383,-0.4009 -1.620322,-2.08805 -0.183748,-0.41761 -0.01669,-0.71828 0.467723,-0.61806 0.751694,-0.21716 0.952148,-0.0835 1.653731,-0.13364 1.085781,-0.28397 0.501132,-0.30068 0.701582,-0.95215 1.937702,-3.32416 0.618063,-0.3842 0.584651,0.20045 1.5368,2.40543 1.286236,2.00452 0.551244,0.31738 1.50339,0.3675 1.436574,0.0835 1.202715,0.35079 0.90203,0.61806 -0.0167,1.00226 -0.96885,1.23612 -1.41987,1.5201 -1.085781,1.46998 -0.150339,0.90204 0.701583,1.70384 0.250565,0.66817 0.08352,1.46999 -1.152599,0.83521 -1.386461,-0.18375 -1.085782,-0.60135 -2.154862,-1.23612 -0.501131,-0.0167 -1.419868,0.66818 -2.539061,1.20271 z"
       style="fill:#0066ad;fill-opacity:1;stroke:none;stroke-width:0.26458332px;stroke-linecap:butt;stroke-linejoin:miter;stroke-opacity:1" />
    <path
       id="path3728-4"
       d="m 75.597645,125.34215 -0.392228,-0.12661 -0.265019,-0.28479 -0.159012,-0.6118 0.243819,-1.07587 0.180212,-0.49574 0.137805,-0.5063 -0.09541,-0.39026 -0.243818,-0.39027 -0.201417,-0.35863 -0.339223,-0.327 -0.201415,-0.25312 -1.028275,-1.31849 -0.11662,-0.26369 -0.01062,-0.45355 0.296822,-0.39028 0.477035,-0.13705 0.604242,-0.0528 1.049479,-0.0844 0.68905,-0.17931 0.318024,-0.18987 0.445234,-0.6012 1.229688,-2.09903 0.392229,-0.2426 0.371028,0.12662 0.975271,1.51888 0.81626,1.26574 0.349825,0.20041 0.95407,0.23206 0.911668,0.0528 0.763253,0.22149 0.572445,0.39028 -0.01062,0.63286 -0.614843,0.78053 -0.901069,0.95985 -0.68905,0.92822 -0.09541,0.56959 0.445233,1.07586 0.159011,0.42191 0.05301,0.92822 -0.731453,0.52737 -0.879865,-0.11608 -0.689051,-0.37972 -1.3675,-0.78053 -0.318023,-0.009 -0.901067,0.42193 -1.611318,0.75944 z"
       style="fill:#ffffff;fill-opacity:1;stroke:none;stroke-width:0.1674878px;stroke-linecap:butt;stroke-linejoin:miter;stroke-opacity:1" />
    <path
       id="path3757"
       d="m 118.89713,96.743484 0.7087,1.74815 0.61422,2.315106 0.23623,3.26005 0.28348,5.66964 -0.42522,6.04762 -1.27567,5.24442 -1.98437,3.82701 -2.45685,3.68527 -2.92932,3.54352 -3.96874,3.11831 -3.49627,2.36235 -3.4018,1.93713 -4.819197,1.70089 -3.59077,0.8977 -5.81139,0.33072 -4.441214,-0.51971 -2.976563,-1.22843 -3.023809,-1.5119 -2.456846,-1.88988 -2.409598,-2.26786 -2.220611,-2.88207 -2.220608,-3.30729 -2.031622,-4.7247 -1.086683,-3.73252 -0.992187,-5.10268 -0.519716,-4.67745 -0.0945,-4.67746 0.472472,-4.44123 0.850444,-4.346726 1.370166,-3.40179 2.078869,-3.63802 2.36235,-2.882066 3.118303,-2.504091 3.68527,-1.795388 3.543525,-1.228421 4.015996,-1.086684 4.016002,-0.519715 4.11049,-0.141743 4.53571,0.330729 3.35454,0.944941 3.496287,0.992188 1.22843,0.661458 1.13393,0.283482 0.0945,-0.661458 -3.87426,-1.984375 -3.260057,-0.992187 -3.827,-1.039434 -5.43341,-0.236236 -7.039808,0.425225 -5.102678,1.937125 -4.677457,2.645834 -4.204983,2.929316 -2.598587,3.16555 -2.078868,3.1183 -1.086684,2.45685 -1.41741,3.77976 -1.039434,4.299486 -0.377976,4.48848 0.09449,5.76413 0.614211,3.92151 1.228424,3.87425 1.606396,4.58296 2.315104,4.39398 1.842635,3.02381 2.315105,2.59858 2.36235,2.55134 2.787576,2.36235 3.118303,1.98438 3.307291,1.41741 3.874257,1.03943 4.441223,0.18899 4.91369,-0.18899 3.73251,-1.08668 4.063237,-1.6064 3.35455,-1.74814 3.44903,-2.55134 3.0238,-2.83482 2.31511,-2.69308 3.16555,-4.63021 1.98437,-4.15773 1.46466,-4.06325 0.8032,-3.68527 0.33073,-3.02381 -0.14174,-7.9375 -0.47247,-3.82701 -0.85045,-3.543536 -0.75595,-1.55915 -0.51972,0.28348 z"
       style="fill:#0066ad;fill-opacity:1;stroke:none;stroke-width:0.26458332px;stroke-linecap:butt;stroke-linejoin:miter;stroke-opacity:1" />
    <path
       id="path3728-1"
       d="m 84.480282,114.13273 -0.61806,-0.20045 -0.41761,-0.45102 -0.25057,-0.96885 0.3842,-1.70384 0.28398,-0.78511 0.21715,-0.80181 -0.15034,-0.61806 -0.3842,-0.61806 -0.31738,-0.56795 -0.53454,-0.51783 -0.31738,-0.4009 -1.62032,-2.08805 -0.18375,-0.41761 -0.0167,-0.71828 0.46772,-0.61806 0.7517,-0.21716 0.95214,-0.0835 1.65373,-0.13364 1.08579,-0.28397 0.501131,-0.30068 0.70158,-0.95215 1.9377,-3.324165 0.61806,-0.3842 0.58466,0.20045 1.5368,2.40543 1.28623,2.004525 0.55125,0.31738 1.50339,0.3675 1.43657,0.0835 1.20271,0.3508 0.90204,0.61806 -0.0167,1.00225 -0.96885,1.23613 -1.41988,1.52009 -1.08578,1.46998 -0.15034,0.90204 0.70159,1.70384 0.25056,0.66817 0.0835,1.46999 -1.1526,0.83521 -1.38646,-0.18375 -1.08578,-0.60135 -2.15486,-1.23612 -0.50113,-0.0167 -1.41987,0.66818 -2.539061,1.20271 z"
       style="fill:#0066ad;fill-opacity:1;stroke:none;stroke-width:0.26458332px;stroke-linecap:butt;stroke-linejoin:miter;stroke-opacity:1" />
    <path
       id="path3728-4-7"
       d="m 86.153383,111.51781 -0.392231,-0.12661 -0.26502,-0.28479 -0.15901,-0.6118 0.24382,-1.07587 0.18021,-0.49574 0.137801,-0.5063 -0.0954,-0.39026 -0.24381,-0.39027 -0.20142,-0.35863 -0.33922,-0.327 -0.20142,-0.25312 -1.02827,-1.31849 -0.11662,-0.26369 -0.0106,-0.45355 0.29682,-0.39028 0.47703,-0.13705 0.60424,-0.0528 1.04948,-0.0844 0.68905,-0.17931 0.31803,-0.18987 0.44523,-0.6012 1.22969,-2.09903 0.39223,-0.2426 0.37103,0.12662 0.97527,1.51888 0.81626,1.26574 0.34982,0.20041 0.95407,0.23206 0.91167,0.0528 0.76325,0.22149 0.57245,0.39028 -0.0106,0.63286 -0.61484,0.78053 -0.90107,0.95985 -0.68905,0.92822 -0.0954,0.56959 0.44523,1.07586 0.15901,0.42191 0.053,0.92822 -0.73145,0.52737 -0.87987,-0.11608 -0.68905,-0.37972 -1.3675,-0.78053 -0.31802,-0.009 -0.90107,0.42193 -1.61132,0.75944 z"
       style="fill:#ffffff;fill-opacity:1;stroke:none;stroke-width:0.1674878px;stroke-linecap:butt;stroke-linejoin:miter;stroke-opacity:1" />
    <path
       id="path3728-3"
       d="m 95.158103,127.92886 -0.61806,-0.20045 -0.41761,-0.45102 -0.25056,-0.96885 0.3842,-1.70384 0.28397,-0.78511 0.21716,-0.80181 -0.15034,-0.61806 -0.3842,-0.61806 -0.31738,-0.56795 -0.53454,-0.51783 -0.31738,-0.4009 -1.62033,-2.08805 -0.18374,-0.41761 -0.0167,-0.71828 0.46772,-0.61806 0.75169,-0.21716 0.95215,-0.0835 1.65373,-0.13364 1.08578,-0.28397 0.50113,-0.30068 0.70159,-0.95215 1.9377,-3.32416 0.61806,-0.3842 0.584647,0.20045 1.5368,2.40543 1.28624,2.00452 0.55124,0.31738 1.50339,0.3675 1.43658,0.0835 1.20271,0.35079 0.90203,0.61806 -0.0167,1.00226 -0.96885,1.23612 -1.41987,1.5201 -1.08578,1.46998 -0.15034,0.90204 0.70158,1.70384 0.25057,0.66817 0.0835,1.46999 -1.1526,0.83521 -1.38646,-0.18375 -1.08578,-0.60135 -2.15486,-1.23612 -0.50114,-0.0167 -1.419857,0.66818 -2.53906,1.20271 z"
       style="fill:#0066ad;fill-opacity:1;stroke:none;stroke-width:0.26458332px;stroke-linecap:butt;stroke-linejoin:miter;stroke-opacity:1" />
    <path
       id="path3728-4-8"
       d="m 96.831203,125.31394 -0.39222,-0.12661 -0.26502,-0.28479 -0.15902,-0.6118 0.24382,-1.07587 0.18022,-0.49574 0.1378,-0.5063 -0.0954,-0.39026 -0.24382,-0.39027 -0.20141,-0.35863 -0.33923,-0.327 -0.20141,-0.25312 -1.02828,-1.31849 -0.11662,-0.26369 -0.0106,-0.45355 0.29683,-0.39028 0.47703,-0.13705 0.60424,-0.0528 1.04948,-0.0844 0.68905,-0.17931 0.31803,-0.18987 0.44523,-0.6012 1.22969,-2.09903 0.39223,-0.2426 0.371017,0.12662 0.97527,1.51888 0.81626,1.26574 0.34983,0.20041 0.95407,0.23206 0.91167,0.0528 0.76325,0.22149 0.57245,0.39028 -0.0106,0.63286 -0.61485,0.78053 -0.90107,0.95985 -0.68905,0.92822 -0.0954,0.56959 0.44524,1.07586 0.15901,0.42191 0.053,0.92822 -0.73146,0.52737 -0.87986,-0.11608 -0.68905,-0.37972 -1.3675,-0.78053 -0.318027,-0.009 -0.90106,0.42193 -1.61132,0.75944 z"
       style="fill:#ffffff;fill-opacity:1;stroke:none;stroke-width:0.1674878px;stroke-linecap:butt;stroke-linejoin:miter;stroke-opacity:1" />
  </g>
</svg>
